<?xml version="1.0" encoding="UTF-8" standalone="no"?>
<!DOCTYPE svg PUBLIC "-//W3C//DTD SVG 1.1//EN"
 "http://www.w3.org/Graphics/SVG/1.1/DTD/svg11.dtd">
<!-- Generated by graphviz version 14.1.1 (20251213.1925)
 -->
<!-- Title: InheritanceTree Pages: 1 -->
<svg width="492pt" height="573pt"
 viewBox="0.00 0.00 492.00 573.00" xmlns="http://www.w3.org/2000/svg" xmlns:xlink="http://www.w3.org/1999/xlink">
<g id="graph0" class="graph" transform="scale(1 1) rotate(0) translate(4 568.5)">
<title>InheritanceTree</title>
<polygon fill="white" stroke="none" points="-4,4 -4,-568.5 488.25,-568.5 488.25,4 -4,4"/>
<text xml:space="preserve" text-anchor="middle" x="242.12" y="-7.2" font-family="Times New Roman,serif" font-size="14.00">simple_sorter &#45; Inheritance Hierarchy</text>
<!-- SIMPLE_HEAP_SORT -->
<g id="node1" class="node">
<title>SIMPLE_HEAP_SORT</title>
<path fill="none" stroke="black" d="M152.88,-276.5C152.88,-276.5 29.62,-276.5 29.62,-276.5 23.62,-276.5 17.62,-270.5 17.62,-264.5 17.62,-264.5 17.62,-252.5 17.62,-252.5 17.62,-246.5 23.62,-240.5 29.62,-240.5 29.62,-240.5 152.88,-240.5 152.88,-240.5 158.88,-240.5 164.88,-246.5 164.88,-252.5 164.88,-252.5 164.88,-264.5 164.88,-264.5 164.88,-270.5 158.88,-276.5 152.88,-276.5"/>
<text xml:space="preserve" text-anchor="middle" x="91.25" y="-253.45" font-family="Times New Roman,serif" font-size="14.00">SIMPLE_HEAP_SORT</text>
</g>
<!-- SIMPLE_SORT_ALGORITHM -->
<g id="node2" class="node">
<title>SIMPLE_SORT_ALGORITHM</title>
<path fill="none" stroke="black" d="M472.25,-168.5C472.25,-168.5 302.5,-168.5 302.5,-168.5 296.5,-168.5 290.5,-162.5 290.5,-156.5 290.5,-156.5 290.5,-144.5 290.5,-144.5 290.5,-138.5 296.5,-132.5 302.5,-132.5 302.5,-132.5 472.25,-132.5 472.25,-132.5 478.25,-132.5 484.25,-138.5 484.25,-144.5 484.25,-144.5 484.25,-156.5 484.25,-156.5 484.25,-162.5 478.25,-168.5 472.25,-168.5"/>
<text xml:space="preserve" text-anchor="middle" x="387.38" y="-145.45" font-family="Times New Roman,serif" font-size="14.00">SIMPLE_SORT_ALGORITHM</text>
</g>
<!-- SIMPLE_HEAP_SORT&#45;&gt;SIMPLE_SORT_ALGORITHM -->
<g id="edge1" class="edge">
<title>SIMPLE_HEAP_SORT&#45;&gt;SIMPLE_SORT_ALGORITHM</title>
<path fill="none" stroke="black" d="M165.18,-258.5C252.85,-258.5 387.25,-258.5 387.25,-258.5 387.25,-258.5 387.25,-180.33 387.25,-180.33"/>
<polygon fill="none" stroke="black" points="390.75,-180.33 387.25,-170.33 383.75,-180.33 390.75,-180.33"/>
</g>
<!-- SIMPLE_INSERTION_SORT -->
<g id="node3" class="node">
<title>SIMPLE_INSERTION_SORT</title>
<path fill="none" stroke="black" d="M170.5,-204.5C170.5,-204.5 12,-204.5 12,-204.5 6,-204.5 0,-198.5 0,-192.5 0,-192.5 0,-180.5 0,-180.5 0,-174.5 6,-168.5 12,-168.5 12,-168.5 170.5,-168.5 170.5,-168.5 176.5,-168.5 182.5,-174.5 182.5,-180.5 182.5,-180.5 182.5,-192.5 182.5,-192.5 182.5,-198.5 176.5,-204.5 170.5,-204.5"/>
<text xml:space="preserve" text-anchor="middle" x="91.25" y="-181.45" font-family="Times New Roman,serif" font-size="14.00">SIMPLE_INSERTION_SORT</text>
</g>
<!-- SIMPLE_INSERTION_SORT&#45;&gt;SIMPLE_SORT_ALGORITHM -->
<g id="edge2" class="edge">
<title>SIMPLE_INSERTION_SORT&#45;&gt;SIMPLE_SORT_ALGORITHM</title>
<path fill="none" stroke="black" d="M177.25,-168.01C177.25,-161.84 177.25,-156.5 177.25,-156.5 177.25,-156.5 278.49,-156.5 278.49,-156.5"/>
<polygon fill="none" stroke="black" points="278.49,-160 288.49,-156.5 278.49,-153 278.49,-160"/>
</g>
<!-- SIMPLE_INTROSORT -->
<g id="node4" class="node">
<title>SIMPLE_INTROSORT</title>
<path fill="none" stroke="black" d="M152.5,-132.5C152.5,-132.5 30,-132.5 30,-132.5 24,-132.5 18,-126.5 18,-120.5 18,-120.5 18,-108.5 18,-108.5 18,-102.5 24,-96.5 30,-96.5 30,-96.5 152.5,-96.5 152.5,-96.5 158.5,-96.5 164.5,-102.5 164.5,-108.5 164.5,-108.5 164.5,-120.5 164.5,-120.5 164.5,-126.5 158.5,-132.5 152.5,-132.5"/>
<text xml:space="preserve" text-anchor="middle" x="91.25" y="-109.45" font-family="Times New Roman,serif" font-size="14.00">SIMPLE_INTROSORT</text>
</g>
<!-- SIMPLE_INTROSORT&#45;&gt;SIMPLE_SORT_ALGORITHM -->
<g id="edge3" class="edge">
<title>SIMPLE_INTROSORT&#45;&gt;SIMPLE_SORT_ALGORITHM</title>
<path fill="none" stroke="black" d="M91.25,-132.99C91.25,-139.16 91.25,-144.5 91.25,-144.5 91.25,-144.5 278.49,-144.5 278.49,-144.5"/>
<polygon fill="none" stroke="black" points="278.49,-148 288.49,-144.5 278.49,-141 278.49,-148"/>
</g>
<!-- SIMPLE_MERGE_SORT -->
<g id="node5" class="node">
<title>SIMPLE_MERGE_SORT</title>
<path fill="none" stroke="black" d="M159.25,-60.5C159.25,-60.5 23.25,-60.5 23.25,-60.5 17.25,-60.5 11.25,-54.5 11.25,-48.5 11.25,-48.5 11.25,-36.5 11.25,-36.5 11.25,-30.5 17.25,-24.5 23.25,-24.5 23.25,-24.5 159.25,-24.5 159.25,-24.5 165.25,-24.5 171.25,-30.5 171.25,-36.5 171.25,-36.5 171.25,-48.5 171.25,-48.5 171.25,-54.5 165.25,-60.5 159.25,-60.5"/>
<text xml:space="preserve" text-anchor="middle" x="91.25" y="-37.45" font-family="Times New Roman,serif" font-size="14.00">SIMPLE_MERGE_SORT</text>
</g>
<!-- SIMPLE_MERGE_SORT&#45;&gt;SIMPLE_SORT_ALGORITHM -->
<g id="edge4" class="edge">
<title>SIMPLE_MERGE_SORT&#45;&gt;SIMPLE_SORT_ALGORITHM</title>
<path fill="none" stroke="black" d="M171.74,-42.5C259.39,-42.5 387.25,-42.5 387.25,-42.5 387.25,-42.5 387.25,-120.67 387.25,-120.67"/>
<polygon fill="none" stroke="black" points="383.75,-120.67 387.25,-130.67 390.75,-120.67 383.75,-120.67"/>
</g>
<!-- SIMPLE_SORTER -->
<g id="node6" class="node">
<title>SIMPLE_SORTER</title>
<path fill="none" stroke="black" d="M140.5,-348.5C140.5,-348.5 42,-348.5 42,-348.5 36,-348.5 30,-342.5 30,-336.5 30,-336.5 30,-324.5 30,-324.5 30,-318.5 36,-312.5 42,-312.5 42,-312.5 140.5,-312.5 140.5,-312.5 146.5,-312.5 152.5,-318.5 152.5,-324.5 152.5,-324.5 152.5,-336.5 152.5,-336.5 152.5,-342.5 146.5,-348.5 140.5,-348.5"/>
<text xml:space="preserve" text-anchor="middle" x="91.25" y="-325.45" font-family="Times New Roman,serif" font-size="14.00">SIMPLE_SORTER</text>
</g>
<!-- ADVERSARIAL_TESTS -->
<g id="node7" class="node">
<title>ADVERSARIAL_TESTS</title>
<path fill="none" stroke="black" d="M158.12,-420.5C158.12,-420.5 24.38,-420.5 24.38,-420.5 18.38,-420.5 12.38,-414.5 12.38,-408.5 12.38,-408.5 12.38,-396.5 12.38,-396.5 12.38,-390.5 18.38,-384.5 24.38,-384.5 24.38,-384.5 158.12,-384.5 158.12,-384.5 164.12,-384.5 170.12,-390.5 170.12,-396.5 170.12,-396.5 170.12,-408.5 170.12,-408.5 170.12,-414.5 164.12,-420.5 158.12,-420.5"/>
<text xml:space="preserve" text-anchor="middle" x="91.25" y="-397.45" font-family="Times New Roman,serif" font-size="14.00">ADVERSARIAL_TESTS</text>
</g>
<!-- APPLICATION -->
<g id="node8" class="node">
<title>APPLICATION</title>
<path fill="none" stroke="black" d="M130.75,-492.5C130.75,-492.5 51.75,-492.5 51.75,-492.5 45.75,-492.5 39.75,-486.5 39.75,-480.5 39.75,-480.5 39.75,-468.5 39.75,-468.5 39.75,-462.5 45.75,-456.5 51.75,-456.5 51.75,-456.5 130.75,-456.5 130.75,-456.5 136.75,-456.5 142.75,-462.5 142.75,-468.5 142.75,-468.5 142.75,-480.5 142.75,-480.5 142.75,-486.5 136.75,-492.5 130.75,-492.5"/>
<text xml:space="preserve" text-anchor="middle" x="91.25" y="-469.45" font-family="Times New Roman,serif" font-size="14.00">APPLICATION</text>
</g>
<!-- SIMPLE_SORTER_TESTS -->
<g id="node9" class="node">
<title>SIMPLE_SORTER_TESTS</title>
<path fill="none" stroke="black" d="M163.75,-564.5C163.75,-564.5 18.75,-564.5 18.75,-564.5 12.75,-564.5 6.75,-558.5 6.75,-552.5 6.75,-552.5 6.75,-540.5 6.75,-540.5 6.75,-534.5 12.75,-528.5 18.75,-528.5 18.75,-528.5 163.75,-528.5 163.75,-528.5 169.75,-528.5 175.75,-534.5 175.75,-540.5 175.75,-540.5 175.75,-552.5 175.75,-552.5 175.75,-558.5 169.75,-564.5 163.75,-564.5"/>
<text xml:space="preserve" text-anchor="middle" x="91.25" y="-541.45" font-family="Times New Roman,serif" font-size="14.00">SIMPLE_SORTER_TESTS</text>
</g>
</g>
</svg>
