<?xml version="1.0" encoding="UTF-8" standalone="no"?>
<!DOCTYPE svg PUBLIC "-//W3C//DTD SVG 1.1//EN"
 "http://www.w3.org/Graphics/SVG/1.1/DTD/svg11.dtd">
<!-- Generated by graphviz version 14.1.1 (20251213.1925)
 -->
<!-- Title: Dependencies Pages: 1 -->
<svg width="328pt" height="213pt"
 viewBox="0.00 0.00 328.00 213.00" xmlns="http://www.w3.org/2000/svg" xmlns:xlink="http://www.w3.org/1999/xlink">
<g id="graph0" class="graph" transform="scale(1 1) rotate(0) translate(4 208.5)">
<title>Dependencies</title>
<polygon fill="white" stroke="none" points="-4,4 -4,-208.5 324,-208.5 324,4 -4,4"/>
<text xml:space="preserve" text-anchor="middle" x="160" y="-7.2" font-family="Times New Roman,serif" font-size="14.00">simple_sorter &#45; Dependencies</text>
<!-- simple_sorter -->
<g id="node1" class="node">
<title>simple_sorter</title>
<polygon fill="lightblue" stroke="black" points="90.25,-132.5 0,-132.5 0,-96.5 90.25,-96.5 90.25,-132.5"/>
<text xml:space="preserve" text-anchor="middle" x="45.12" y="-109.45" font-family="Times New Roman,serif" font-size="14.00">simple_sorter</text>
</g>
<!-- simple_mml -->
<g id="node2" class="node">
<title>simple_mml</title>
<polygon fill="lightblue" stroke="black" points="320,-204.5 234.25,-204.5 234.25,-168.5 320,-168.5 320,-204.5"/>
<text xml:space="preserve" text-anchor="middle" x="277.12" y="-181.45" font-family="Times New Roman,serif" font-size="14.00">simple_mml</text>
</g>
<!-- simple_sorter&#45;&gt;simple_mml -->
<g id="edge1" class="edge">
<title>simple_sorter&#45;&gt;simple_mml</title>
<path fill="none" stroke="black" stroke-dasharray="5,2" d="M90.29,-120.5C148.42,-120.5 242,-120.5 242,-120.5 242,-120.5 242,-156.6 242,-156.6"/>
<polygon fill="black" stroke="black" points="238.5,-156.6 242,-166.6 245.5,-156.6 238.5,-156.6"/>
</g>
<!-- base -->
<g id="node3" class="node">
<title>base</title>
<polygon fill="lightgray" stroke="black" points="304.12,-132.5 250.12,-132.5 250.12,-96.5 304.12,-96.5 304.12,-132.5"/>
<text xml:space="preserve" text-anchor="middle" x="277.12" y="-109.45" font-family="Times New Roman,serif" font-size="14.00">base</text>
</g>
<!-- simple_sorter&#45;&gt;base -->
<g id="edge2" class="edge">
<title>simple_sorter&#45;&gt;base</title>
<path fill="none" stroke="black" stroke-dasharray="5,2" d="M90.68,-108.5C90.68,-108.5 238.31,-108.5 238.31,-108.5"/>
<polygon fill="black" stroke="black" points="238.31,-112 248.31,-108.5 238.31,-105 238.31,-112"/>
</g>
<!-- testing -->
<g id="node4" class="node">
<title>testing</title>
<polygon fill="lightgray" stroke="black" points="304.12,-60.5 250.12,-60.5 250.12,-24.5 304.12,-24.5 304.12,-60.5"/>
<text xml:space="preserve" text-anchor="middle" x="277.12" y="-37.45" font-family="Times New Roman,serif" font-size="14.00">testing</text>
</g>
<!-- simple_sorter&#45;&gt;testing -->
<g id="edge3" class="edge">
<title>simple_sorter&#45;&gt;testing</title>
<path fill="none" stroke="black" stroke-dasharray="5,2" d="M45,-96.33C45,-75 45,-42.5 45,-42.5 45,-42.5 238.53,-42.5 238.53,-42.5"/>
<polygon fill="black" stroke="black" points="238.53,-46 248.53,-42.5 238.53,-39 238.53,-46"/>
</g>
</g>
</svg>
